<svg width="160" height="61" viewBox="0 0 160 61" fill="none" xmlns="http://www.w3.org/2000/svg">
<path d="M89.0894 50.7097C89.2508 51.1748 89.3369 51.5501 89.3479 51.8357C89.3573 52.1213 89.2821 52.3383 89.1192 52.4852C88.9563 52.6337 88.6884 52.7283 88.3124 52.7708C87.9365 52.8132 87.4352 52.8344 86.807 52.8344C86.1772 52.8344 85.6759 52.8197 85.3 52.7871C84.924 52.7561 84.6404 52.7022 84.4478 52.6288C84.2551 52.5554 84.1125 52.4542 84.0217 52.3285C83.9308 52.2012 83.8431 52.043 83.7632 51.8537L80.3857 41.8701H64.0184L60.7929 51.7264C60.7318 51.9173 60.6503 52.0805 60.5501 52.2176C60.4482 52.3546 60.301 52.4705 60.1083 52.5668C59.9156 52.6631 59.6415 52.73 59.2874 52.774C58.9318 52.8165 58.4713 52.8377 57.9026 52.8377C57.3136 52.8377 56.8327 52.8116 56.4582 52.7593C56.0823 52.7055 55.8191 52.6059 55.6671 52.4591C55.5152 52.3122 55.4431 52.0935 55.4541 51.8096C55.4635 51.524 55.5496 51.1487 55.7126 50.6836L68.917 12.5883C68.9985 12.3566 69.105 12.1657 69.2366 12.0172C69.3682 11.8703 69.5609 11.7528 69.8146 11.668C70.0684 11.5831 70.3927 11.526 70.789 11.4934C71.1838 11.4624 71.6867 11.446 72.2945 11.446C72.943 11.446 73.4804 11.4624 73.9065 11.4934C74.3326 11.5244 74.6772 11.5831 74.9404 11.668C75.2036 11.7528 75.4072 11.8736 75.5482 12.0319C75.6892 12.1902 75.802 12.386 75.8834 12.6177L89.0894 50.7097ZM72.141 17.0824H72.1112L65.3265 37.5245H79.0181L72.141 17.0824Z" fill="#F7FAFC"/>
<path d="M125.173 51.8498C125.173 52.0196 125.133 52.1615 125.053 52.2774C124.971 52.3933 124.829 52.4944 124.627 52.5776C124.423 52.6625 124.155 52.7245 123.82 52.7686C123.484 52.811 123.063 52.8322 122.557 52.8322C122.07 52.8322 121.655 52.811 121.31 52.7686C120.965 52.7261 120.696 52.6625 120.503 52.5776C120.311 52.4928 120.173 52.3933 120.093 52.2774C120.011 52.1615 119.971 52.0196 119.971 51.8498V24.9424C119.971 24.2881 119.98 23.606 120.002 22.8977C120.022 22.1895 120.052 21.5498 120.093 20.9803H120.032C119.869 21.2757 119.692 21.5939 119.499 21.9317C119.307 22.2695 119.098 22.6236 118.876 22.994C118.652 23.3645 118.429 23.7332 118.207 24.1037C117.983 24.4741 117.76 24.838 117.538 25.197L100.497 51.8809C100.376 52.0506 100.254 52.1974 100.132 52.3247C100.01 52.452 99.8531 52.5515 99.6604 52.625C99.4678 52.6984 99.239 52.7523 98.9759 52.7833C98.7127 52.8159 98.3774 52.8306 97.9717 52.8306C97.5049 52.8306 97.1242 52.8094 96.8313 52.7669C96.5367 52.7245 96.3033 52.656 96.131 52.5597C95.9587 52.4651 95.8365 52.3541 95.766 52.2268C95.6939 52.0995 95.6595 51.9412 95.6595 51.7519V12.423C95.6595 12.2761 95.7049 12.1374 95.7973 12.0117C95.8882 11.8845 96.0402 11.78 96.2532 11.6952C96.4663 11.6103 96.7404 11.5483 97.0741 11.5042C97.4093 11.4618 97.8088 11.4406 98.2756 11.4406C98.7832 11.4406 99.203 11.4618 99.5382 11.5042C99.8735 11.5467 100.141 11.6103 100.345 11.6952C100.547 11.78 100.69 11.8861 100.771 12.0117C100.853 12.139 100.893 12.2761 100.893 12.423V39.4887C100.893 40.0598 100.889 40.6717 100.878 41.3261C100.867 41.9805 100.832 42.6153 100.771 43.2272H100.832C101.156 42.7001 101.537 42.0604 101.973 41.3098C102.408 40.5608 102.87 39.815 103.357 39.0758L120.365 12.3593C120.467 12.2125 120.579 12.0803 120.701 11.9628C120.823 11.8469 120.98 11.7523 121.172 11.6772C121.365 11.6038 121.594 11.545 121.857 11.5026C122.12 11.4602 122.455 11.439 122.861 11.439C123.328 11.439 123.707 11.4602 124.001 11.5026C124.296 11.545 124.529 11.6136 124.702 11.7082C124.874 11.8029 124.996 11.9089 125.067 12.0248C125.137 12.1407 125.173 12.294 125.173 12.485V51.8498V51.8498Z" fill="#F7FAFC"/>
<path d="M159.827 23.6434C159.827 25.693 159.503 27.5419 158.853 29.19C158.202 30.8382 157.275 32.2432 156.069 33.4051C154.861 34.5669 153.381 35.4644 151.628 36.0992C149.873 36.7324 147.779 37.0506 145.344 37.0506H140.872V51.8204C140.872 51.9901 140.826 52.1369 140.734 52.2642C140.643 52.3915 140.5 52.4911 140.308 52.5645C140.115 52.6396 139.852 52.7016 139.517 52.7554C139.181 52.8076 138.762 52.8337 138.254 52.8337C137.746 52.8337 137.327 52.8076 136.991 52.7554C136.656 52.7016 136.387 52.6396 136.185 52.5645C135.981 52.4911 135.84 52.3899 135.758 52.2642C135.677 52.1386 135.636 51.9901 135.636 51.8204V13.978C135.636 13.1327 135.849 12.5306 136.275 12.1716C136.702 11.8126 137.178 11.6331 137.706 11.6331H146.134C146.986 11.6331 147.802 11.6706 148.582 11.744C149.362 11.8191 150.287 11.9774 151.35 12.2189C152.416 12.462 153.5 12.9157 154.606 13.5815C155.712 14.2473 156.648 15.0664 157.421 16.0374C158.191 17.01 158.784 18.1343 159.2 19.412C159.619 20.6898 159.827 22.1013 159.827 23.6434ZM154.321 24.0873C154.321 22.4179 154.021 21.0243 153.423 19.9032C152.824 18.7838 152.085 17.9483 151.202 17.4C150.32 16.85 149.406 16.5025 148.463 16.354C147.52 16.2071 146.602 16.132 145.709 16.132H140.872V32.581H145.587C147.169 32.581 148.482 32.3705 149.527 31.9478C150.572 31.5252 151.449 30.9394 152.159 30.1887C152.868 29.4397 153.406 28.5405 153.771 27.4945C154.137 26.4485 154.321 25.3128 154.321 24.0873Z" fill="#F7FAFC"/>
<path d="M7.97088 44.7578L0 40.2918V13.7642L7.97088 18.0415V44.7578Z" fill="#F7FAFC"/>
<path d="M7.97088 18.0418L0 13.7645L9.34547 7.85205L17.2508 12.8103L7.97088 18.0418Z" fill="#F7FAFC"/>
<path d="M23.4699 41.6612L44.4586 29.0632V40.4307L23.4772 53.4318L23.4699 41.6612Z" fill="#F7FAFC"/>
<path d="M12.6873 47.3952V36.7283L23.47 41.6609L23.4773 53.4314L12.6873 47.3952Z" fill="#F7FAFC"/>
<path d="M36.2228 18.3632L13.7678 5.10247L21.909 0.0400391L44.4587 12.9385L36.2228 18.3632Z" fill="#F7FAFC"/>
<path d="M44.4587 24.1658L36.2228 28.7858V18.3635L44.4587 12.9387V24.1658Z" fill="#F7FAFC"/>
<path d="M0.856491 59.7513L1.38794 58.255H3.52406L4.0555 59.7513H4.72627L2.78622 54.4677H2.12578L0.18573 59.7513H0.856491ZM1.58917 57.6874L2.43536 55.3036H2.47664L3.32283 57.6874H1.58917Z" fill="#F7FAFC"/>
<path d="M8.73793 54.4677H5.54924V59.7513H6.18904V55.0353H8.73793V54.4677Z" fill="#F7FAFC"/>
<path d="M9.72795 59.7513H12.9579V59.1837H10.3678V57.3881H12.7515V56.8206H10.3678V55.0353H12.9166V54.4677H9.72795V59.7513Z" fill="#F7FAFC"/>
<path d="M14.0698 59.7513H14.7096V57.3881H17.5268V59.7513H18.1666V54.4677H17.5268V56.8206H14.7096V54.4677H14.0698V59.7513Z" fill="#F7FAFC"/>
<path d="M19.1586 55.0353H20.82V59.7513H21.4598V55.0353H23.1212V54.4677H19.1586V55.0353Z" fill="#F7FAFC"/>
<path d="M28.1403 56.1188C27.9443 55.0353 27.0774 54.3955 26.0145 54.3955C24.6627 54.3955 23.6824 55.4378 23.6824 57.1095C23.6824 58.7813 24.6627 59.8235 26.0145 59.8235C27.0774 59.8235 27.9443 59.1837 28.1403 58.1002H27.5005C27.3457 58.8328 26.7163 59.225 26.0145 59.225C25.0548 59.225 24.3015 58.482 24.3015 57.1095C24.3015 55.737 25.0548 54.994 26.0145 54.994C26.7163 54.994 27.3457 55.3862 27.5005 56.1188H28.1403Z" fill="#F7FAFC"/>
<path d="M28.8853 55.0353H30.5467V59.7513H31.1865V55.0353H32.8479V54.4677H28.8853V55.0353Z" fill="#F7FAFC"/>
<path d="M33.8354 59.7513H35.7444C36.9931 59.7513 37.5091 59.1424 37.5091 58.3478C37.5091 57.512 36.9312 57.0579 36.4462 57.027V56.9754C36.9002 56.8515 37.3027 56.5523 37.3027 55.8712C37.3027 55.0972 36.7867 54.4677 35.6825 54.4677H33.8354V59.7513ZM34.4752 59.1837V57.3469H35.7754C36.4668 57.3469 36.9002 57.8112 36.9002 58.3478C36.9002 58.8122 36.5803 59.1837 35.7444 59.1837H34.4752ZM34.4752 56.7896V55.0353H35.6825C36.3842 55.0353 36.6938 55.4068 36.6938 55.8712C36.6938 56.4284 36.2398 56.7896 35.6619 56.7896H34.4752Z" fill="#F7FAFC"/>
<path d="M43.0183 57.1095C43.0183 55.4378 42.038 54.3955 40.6861 54.3955C39.3343 54.3955 38.354 55.4378 38.354 57.1095C38.354 58.7813 39.3343 59.8235 40.6861 59.8235C42.038 59.8235 43.0183 58.7813 43.0183 57.1095ZM42.3992 57.1095C42.3992 58.482 41.6458 59.225 40.6861 59.225C39.7264 59.225 38.9731 58.482 38.9731 57.1095C38.9731 55.737 39.7264 54.994 40.6861 54.994C41.6458 54.994 42.3992 55.737 42.3992 57.1095Z" fill="#F7FAFC"/>
<path d="M46.1374 54.4677V59.7513H46.7565L49.6356 55.6029H49.6872V59.7513H50.327V54.4677H49.7079L46.8184 58.6265H46.7668V54.4677H46.1374Z" fill="#F7FAFC"/>
<path d="M51.6073 59.7513H52.2471V57.3881H55.0643V59.7513H55.7041V54.4677H55.0643V56.8206H52.2471V54.4677H51.6073V59.7513Z" fill="#F7FAFC"/>
<path d="M56.985 59.7513H57.6248V57.3881H60.442V59.7513H61.0818V54.4677H60.442V56.8206H57.6248V54.4677H56.985V59.7513Z" fill="#F7FAFC"/>
<path d="M66.8207 57.1095C66.8207 55.4378 65.8403 54.3955 64.4885 54.3955C63.1366 54.3955 62.1563 55.4378 62.1563 57.1095C62.1563 58.7813 63.1366 59.8235 64.4885 59.8235C65.8403 59.8235 66.8207 58.7813 66.8207 57.1095ZM66.2015 57.1095C66.2015 58.482 65.4482 59.225 64.4885 59.225C63.5288 59.225 62.7755 58.482 62.7755 57.1095C62.7755 55.737 63.5288 54.994 64.4885 54.994C65.4482 54.994 66.2015 55.737 66.2015 57.1095Z" fill="#F7FAFC"/>
<path d="M67.8965 59.7513H69.8055C71.0542 59.7513 71.5702 59.1424 71.5702 58.3478C71.5702 57.512 70.9923 57.0579 70.5073 57.027V56.9754C70.9613 56.8515 71.3638 56.5523 71.3638 55.8712C71.3638 55.0972 70.8478 54.4677 69.7436 54.4677H67.8965V59.7513ZM68.5363 59.1837V57.3469H69.8365C70.5279 57.3469 70.9613 57.8112 70.9613 58.3478C70.9613 58.8122 70.6414 59.1837 69.8055 59.1837H68.5363ZM68.5363 56.7896V55.0353H69.7436C70.4454 55.0353 70.7549 55.4068 70.7549 55.8712C70.7549 56.4284 70.3009 56.7896 69.723 56.7896H68.5363Z" fill="#F7FAFC"/>
<path d="M72.8382 59.7513L73.3696 58.255H75.5057L76.0372 59.7513H76.7079L74.7679 54.4677H74.1075L72.1674 59.7513H72.8382ZM73.5708 57.6874L74.417 55.3036H74.4583L75.3045 57.6874H73.5708Z" fill="#F7FAFC"/>
<path d="M82.0199 59.1424H81.4729V54.4677H80.8641V59.1631H78.1398V54.4677H77.5309V59.7513H81.2872V60.9999H81.9476L82.0199 59.1424Z" fill="#F7FAFC"/>
<path d="M82.9866 54.4677V59.7513H83.6058L86.4849 55.6029H86.5365V59.7513H87.1763V54.4677H86.5572L83.6677 58.6265H83.6161V54.4677H82.9866Z" fill="#F7FAFC"/>
<path d="M92.9146 57.1095C92.9146 55.4378 91.9342 54.3955 90.5824 54.3955C89.2305 54.3955 88.2502 55.4378 88.2502 57.1095C88.2502 58.7813 89.2305 59.8235 90.5824 59.8235C91.9342 59.8235 92.9146 58.7813 92.9146 57.1095ZM92.2954 57.1095C92.2954 58.482 91.5421 59.225 90.5824 59.225C89.6227 59.225 88.8694 58.482 88.8694 57.1095C88.8694 55.737 89.6227 54.994 90.5824 54.994C91.5421 54.994 92.2954 55.737 92.2954 57.1095Z" fill="#F7FAFC"/>
<path d="M93.9904 59.7513H94.6301V57.3881H97.4474V59.7513H98.0872V54.4677H97.4474V56.8206H94.6301V54.4677H93.9904V59.7513Z" fill="#F7FAFC"/>
<path d="M99.368 59.7513H100.008V57.3881H102.825V59.7513H103.465V54.4677H102.825V56.8206H100.008V54.4677H99.368V59.7513Z" fill="#F7FAFC"/>
<path d="M109.204 57.1095C109.204 55.4378 108.223 54.3955 106.872 54.3955C105.52 54.3955 104.539 55.4378 104.539 57.1095C104.539 58.7813 105.52 59.8235 106.872 59.8235C108.223 59.8235 109.204 58.7813 109.204 57.1095ZM108.585 57.1095C108.585 58.482 107.831 59.225 106.872 59.225C105.912 59.225 105.159 58.482 105.159 57.1095C105.159 55.737 105.912 54.994 106.872 54.994C107.831 54.994 108.585 55.737 108.585 57.1095Z" fill="#F7FAFC"/>
<path d="M113.468 54.4677H110.28V59.7513H110.919V55.0353H113.468V54.4677Z" fill="#F7FAFC"/>
<path d="M118.696 57.1095C118.696 55.4378 117.716 54.3955 116.364 54.3955C115.012 54.3955 114.032 55.4378 114.032 57.1095C114.032 58.7813 115.012 59.8235 116.364 59.8235C117.716 59.8235 118.696 58.7813 118.696 57.1095ZM118.077 57.1095C118.077 58.482 117.324 59.225 116.364 59.225C115.404 59.225 114.651 58.482 114.651 57.1095C114.651 55.737 115.404 54.994 116.364 54.994C117.324 54.994 118.077 55.737 118.077 57.1095Z" fill="#F7FAFC"/>
<path d="M121.815 59.7513H122.455V57.8215H123.611C124.841 57.8215 125.396 57.0734 125.396 56.1395C125.396 55.2056 124.841 54.4677 123.601 54.4677H121.815V59.7513ZM122.455 57.254V55.0353H123.58C124.439 55.0353 124.767 55.5048 124.767 56.1395C124.767 56.7741 124.439 57.254 123.59 57.254H122.455Z" fill="#F7FAFC"/>
<path d="M126.104 59.7513L126.636 58.255H128.772L129.303 59.7513H129.974L128.034 54.4677H127.374L125.434 59.7513H126.104ZM126.837 57.6874L127.683 55.3036H127.724L128.571 57.6874H126.837Z" fill="#F7FAFC"/>
<path d="M132.489 59.8235C133.514 59.8235 134.275 59.1811 134.275 58.3169C134.275 57.6461 133.877 57.1585 133.212 57.0476V57.0063C133.746 56.8438 134.079 56.4052 134.079 55.8093C134.079 55.0611 133.488 54.3955 132.51 54.3955C131.597 54.3955 130.838 54.9579 130.807 55.7886H131.427C131.45 55.2623 131.95 54.9528 132.5 54.9528C133.083 54.9528 133.459 55.3062 133.459 55.8402C133.459 56.3975 133.023 56.7587 132.397 56.7587H131.973V57.3262H132.397C133.199 57.3262 133.645 57.7338 133.645 58.3169C133.645 58.8767 133.158 59.2559 132.479 59.2559C131.868 59.2559 131.383 58.9412 131.344 58.4304H130.694C130.733 59.2611 131.465 59.8235 132.489 59.8235Z" fill="#F7FAFC"/>
<path d="M135.423 59.7513H137.332C138.58 59.7513 139.096 59.1424 139.096 58.3478C139.096 57.512 138.519 57.0579 138.034 57.027V56.9754C138.488 56.8515 138.89 56.5523 138.89 55.8712C138.89 55.0972 138.374 54.4677 137.27 54.4677H135.423V59.7513ZM136.063 59.1837V57.3469H137.363C138.054 57.3469 138.488 57.8112 138.488 58.3478C138.488 58.8122 138.168 59.1837 137.332 59.1837H136.063ZM136.063 56.7896V55.0353H137.27C137.972 55.0353 138.281 55.4068 138.281 55.8712C138.281 56.4284 137.827 56.7896 137.249 56.7896H136.063Z" fill="#F7FAFC"/>
<path d="M140.148 54.4677V59.7513H140.767L143.646 55.6029H143.698V59.7513H144.337V54.4677H143.718L140.829 58.6265H140.777V54.4677H140.148Z" fill="#F7FAFC"/>
<path d="M145.329 55.0353H146.99V59.7513H147.63V55.0353H149.291V54.4677H145.329V55.0353Z" fill="#F7FAFC"/>
<path d="M150.279 54.4677V59.7513H150.898L153.777 55.6029H153.829V59.7513H154.468V54.4677H153.849L150.96 58.6265H150.908V54.4677H150.279Z" fill="#F7FAFC"/>
<path d="M159.113 59.7513V54.4677H157.328C156.089 54.4677 155.532 55.154 155.532 56.0879C155.532 56.7896 155.847 57.3391 156.52 57.5687L155.326 59.7513H156.069L157.183 57.6848C157.227 57.6874 157.271 57.6874 157.317 57.6874H158.473V59.7513H159.113ZM158.473 57.1095H157.338C156.492 57.1095 156.161 56.7225 156.161 56.0879C156.161 55.4532 156.492 55.0353 157.348 55.0353H158.473V57.1095Z" fill="#F7FAFC"/>
</svg>
