<svg width="220" height="87" viewBox="0 0 220 87" fill="none" xmlns="http://www.w3.org/2000/svg">
<path d="M122.631 67.0634C122.853 67.679 122.971 68.1757 122.986 68.5537C122.999 68.9317 122.896 69.2189 122.672 69.4133C122.447 69.6099 122.079 69.7351 121.561 69.7913C121.044 69.8474 120.354 69.8755 119.489 69.8755C118.622 69.8755 117.932 69.8561 117.415 69.8129C116.897 69.7719 116.507 69.7006 116.241 69.6034C115.976 69.5062 115.78 69.3723 115.655 69.206C115.53 69.0375 115.409 68.828 115.299 68.5775L110.65 55.3637H88.1207L83.6808 68.409C83.5967 68.6617 83.4846 68.8777 83.3466 69.0591C83.2064 69.2405 83.0037 69.3939 82.7385 69.5213C82.4732 69.6487 82.0959 69.7373 81.6086 69.7956C81.1191 69.8518 80.4851 69.8798 79.7024 69.8798C78.8916 69.8798 78.2296 69.8453 77.7142 69.7762C77.1967 69.7049 76.8344 69.5731 76.6253 69.3788C76.4161 69.1844 76.3169 68.895 76.332 68.5192C76.3449 68.1412 76.4635 67.6444 76.6878 67.0289L94.8636 16.6079C94.9757 16.3012 95.1223 16.0485 95.3035 15.852C95.4846 15.6576 95.7498 15.5021 96.0991 15.3898C96.4485 15.2775 96.8948 15.2019 97.4404 15.1587C97.9838 15.1177 98.676 15.0961 99.5126 15.0961C100.405 15.0961 101.145 15.1177 101.731 15.1587C102.318 15.1997 102.792 15.2775 103.155 15.3898C103.517 15.5021 103.797 15.6619 103.991 15.8714C104.185 16.0809 104.341 16.3401 104.453 16.6468L122.631 67.0634ZM99.3013 22.5561H99.2603L89.9212 49.6121H108.768L99.3013 22.5561Z" fill="#023361"/>
<path d="M172.3 68.5731C172.3 68.7978 172.244 68.9857 172.134 69.139C172.022 69.2924 171.825 69.4263 171.547 69.5364C171.267 69.6487 170.898 69.7308 170.437 69.7891C169.975 69.8453 169.395 69.8733 168.699 69.8733C168.028 69.8733 167.457 69.8453 166.982 69.7891C166.508 69.733 166.137 69.6487 165.872 69.5364C165.606 69.4241 165.417 69.2924 165.307 69.139C165.195 68.9857 165.139 68.7978 165.139 68.5731V32.9599C165.139 32.0938 165.151 31.191 165.182 30.2536C165.21 29.3163 165.251 28.4696 165.307 27.7159H165.223C164.998 28.1068 164.755 28.5279 164.49 28.975C164.224 29.4221 163.937 29.8908 163.631 30.3811C163.323 30.8714 163.017 31.3595 162.711 31.8497C162.402 32.34 162.096 32.8217 161.79 33.2968L138.333 68.6142C138.167 68.8388 137.999 69.0332 137.831 69.2016C137.663 69.3701 137.447 69.5019 137.182 69.599C136.916 69.6962 136.602 69.7675 136.239 69.8086C135.877 69.8517 135.416 69.8712 134.857 69.8712C134.215 69.8712 133.691 69.8431 133.287 69.7869C132.882 69.7308 132.561 69.6401 132.323 69.5127C132.086 69.3874 131.918 69.2405 131.821 69.0721C131.722 68.9036 131.674 68.6941 131.674 68.4435V16.3898C131.674 16.1954 131.737 16.0118 131.864 15.8455C131.989 15.677 132.198 15.5388 132.492 15.4265C132.785 15.3142 133.162 15.2321 133.622 15.1738C134.083 15.1176 134.633 15.0896 135.275 15.0896C135.974 15.0896 136.552 15.1176 137.013 15.1738C137.475 15.23 137.844 15.3142 138.124 15.4265C138.402 15.5388 138.598 15.6792 138.711 15.8455C138.823 16.014 138.879 16.1954 138.879 16.3898V52.2125C138.879 52.9684 138.872 53.7784 138.857 54.6445C138.842 55.5106 138.795 56.3507 138.711 57.1607H138.795C139.241 56.463 139.765 55.6164 140.364 54.6229C140.964 53.6315 141.6 52.6445 142.271 51.6661L165.682 16.3055C165.822 16.1112 165.975 15.9362 166.143 15.7807C166.312 15.6274 166.527 15.5021 166.792 15.4027C167.058 15.3055 167.373 15.2278 167.735 15.1716C168.097 15.1155 168.559 15.0874 169.117 15.0874C169.76 15.0874 170.281 15.1155 170.687 15.1716C171.092 15.2278 171.413 15.3185 171.651 15.4438C171.888 15.569 172.056 15.7094 172.153 15.8628C172.25 16.0161 172.3 16.2191 172.3 16.4718V68.5731Z" fill="#023361"/>
<path d="M220 31.2407C220 33.9534 219.554 36.4005 218.659 38.5819C217.764 40.7633 216.487 42.6229 214.827 44.1607C213.164 45.6985 211.127 46.8864 208.714 47.7266C206.299 48.5646 203.416 48.9858 200.065 48.9858H193.908V68.5343C193.908 68.7589 193.846 68.9533 193.719 69.1217C193.594 69.2902 193.397 69.422 193.132 69.5191C192.867 69.6185 192.505 69.7006 192.043 69.7718C191.582 69.841 191.004 69.8755 190.305 69.8755C189.606 69.8755 189.029 69.841 188.567 69.7718C188.106 69.7006 187.735 69.6185 187.457 69.5191C187.176 69.422 186.982 69.288 186.87 69.1217C186.758 68.9554 186.702 68.7589 186.702 68.5343V18.4481C186.702 17.3293 186.995 16.5323 187.582 16.0572C188.168 15.582 188.824 15.3444 189.55 15.3444H201.152C202.325 15.3444 203.448 15.3941 204.522 15.4913C205.596 15.5907 206.868 15.8002 208.332 16.1198C209.798 16.4416 211.291 17.0421 212.813 17.9233C214.335 18.8045 215.625 19.8887 216.688 21.1738C217.749 22.461 218.564 23.9491 219.138 25.6403C219.713 27.3314 220 29.1997 220 31.2407ZM212.421 31.8282C212.421 29.6187 212.009 27.7742 211.185 26.2904C210.361 24.8088 209.343 23.7029 208.127 22.9772C206.913 22.2494 205.656 21.7893 204.358 21.5928C203.06 21.3984 201.796 21.2991 200.567 21.2991H193.908V43.07H200.399C202.577 43.07 204.384 42.7914 205.822 42.232C207.26 41.6726 208.468 40.8972 209.445 39.9037C210.422 38.9124 211.161 37.7223 211.664 36.3379C212.168 34.9534 212.421 33.4502 212.421 31.8282Z" fill="#023361"/>
<path d="M10.9719 59.1863L6.10352e-05 53.2753V18.1647L10.9719 23.826V59.1863Z" fill="#023361"/>
<path d="M10.9719 23.826L6.10352e-05 18.1648L12.864 10.3393L23.7456 16.9018L10.9719 23.826Z" fill="#014483"/>
<path d="M32.3062 55.0877L61.197 38.4137V53.4591L32.3162 70.6666L32.3062 55.0877Z" fill="#FE0202"/>
<path d="M17.464 62.6774V48.5592L32.3062 55.0877L32.3162 70.6667L17.464 62.6774Z" fill="#FF464A"/>
<path d="M49.8604 24.2516L18.9512 6.70037L30.1576 0L61.197 17.0717L49.8604 24.2516Z" fill="#E2E8F0"/>
<path d="M61.197 31.9312L49.8604 38.0461V24.2516L61.197 17.0717V31.9312Z" fill="#CBD5E0"/>
<path d="M1.17903 85L1.91057 82.9403H4.85091L5.58244 85H6.50574L3.83528 77.7273H2.92619L0.255737 85H1.17903ZM2.18756 82.1591L3.35233 78.8778H3.40915L4.57392 82.1591H2.18756Z" fill="#718096"/>
<path d="M12.0278 77.7273H7.63855V85H8.51923V78.5085H12.0278V77.7273Z" fill="#718096"/>
<path d="M13.3905 85H17.8365V84.2187H14.2712V81.7472H17.5524V80.9659H14.2712V78.5085H17.7797V77.7273H13.3905V85Z" fill="#718096"/>
<path d="M19.3671 85H20.2477V81.7472H24.1256V85H25.0063V77.7273H24.1256V80.9659H20.2477V77.7273H19.3671V85Z" fill="#718096"/>
<path d="M26.3717 78.5085H28.6586V85H29.5393V78.5085H31.8262V77.7273H26.3717V78.5085Z" fill="#718096"/>
<path d="M38.735 80C38.4651 78.5085 37.2719 77.6278 35.8088 77.6278C33.948 77.6278 32.5986 79.0625 32.5986 81.3636C32.5986 83.6648 33.948 85.0994 35.8088 85.0994C37.2719 85.0994 38.4651 84.2187 38.735 82.7273H37.8543C37.6412 83.7358 36.7747 84.2756 35.8088 84.2756C34.4878 84.2756 33.4509 83.2528 33.4509 81.3636C33.4509 79.4744 34.4878 78.4517 35.8088 78.4517C36.7747 78.4517 37.6412 78.9915 37.8543 80H38.735Z" fill="#718096"/>
<path d="M39.7604 78.5085H42.0473V85H42.928V78.5085H45.2149V77.7273H39.7604V78.5085Z" fill="#718096"/>
<path d="M46.5741 85H49.2019C50.9207 85 51.6309 84.1619 51.6309 83.0682C51.6309 81.9176 50.8355 81.2926 50.1678 81.25V81.179C50.7928 81.0085 51.3468 80.5966 51.3468 79.6591C51.3468 78.5937 50.6366 77.7273 49.1167 77.7273H46.5741V85ZM47.4548 84.2187V81.6903H49.2446C50.1963 81.6903 50.7928 82.3295 50.7928 83.0682C50.7928 83.7074 50.3525 84.2187 49.2019 84.2187H47.4548ZM47.4548 80.9233V78.5085H49.1167C50.0826 78.5085 50.5088 79.0199 50.5088 79.6591C50.5088 80.4261 49.8838 80.9233 49.0883 80.9233H47.4548Z" fill="#718096"/>
<path d="M59.2144 81.3636C59.2144 79.0625 57.8649 77.6278 56.0041 77.6278C54.1433 77.6278 52.7939 79.0625 52.7939 81.3636C52.7939 83.6648 54.1433 85.0994 56.0041 85.0994C57.8649 85.0994 59.2144 83.6648 59.2144 81.3636ZM58.3621 81.3636C58.3621 83.2528 57.3252 84.2756 56.0041 84.2756C54.6831 84.2756 53.6462 83.2528 53.6462 81.3636C53.6462 79.4744 54.6831 78.4517 56.0041 78.4517C57.3252 78.4517 58.3621 79.4744 58.3621 81.3636Z" fill="#718096"/>
<path d="M63.5077 77.7273V85H64.36L68.323 79.2898H68.3941V85H69.2747V77.7273H68.4225L64.4452 83.4517H64.3742V77.7273H63.5077Z" fill="#718096"/>
<path d="M71.037 85H71.9177V81.7472H75.7955V85H76.6762V77.7273H75.7955V80.9659H71.9177V77.7273H71.037V85Z" fill="#718096"/>
<path d="M78.4393 85H79.32V81.7472H83.1979V85H84.0785V77.7273H83.1979V80.9659H79.32V77.7273H78.4393V85Z" fill="#718096"/>
<path d="M91.978 81.3636C91.978 79.0625 90.6286 77.6278 88.7678 77.6278C86.907 77.6278 85.5576 79.0625 85.5576 81.3636C85.5576 83.6648 86.907 85.0994 88.7678 85.0994C90.6286 85.0994 91.978 83.6648 91.978 81.3636ZM91.1258 81.3636C91.1258 83.2528 90.0888 84.2756 88.7678 84.2756C87.4468 84.2756 86.4099 83.2528 86.4099 81.3636C86.4099 79.4744 87.4468 78.4517 88.7678 78.4517C90.0888 78.4517 91.1258 79.4744 91.1258 81.3636Z" fill="#718096"/>
<path d="M93.4589 85H96.0867C97.8055 85 98.5157 84.1619 98.5157 83.0682C98.5157 81.9176 97.7202 81.2926 97.0526 81.25V81.179C97.6776 81.0085 98.2316 80.5966 98.2316 79.6591C98.2316 78.5937 97.5214 77.7273 96.0015 77.7273H93.4589V85ZM94.3395 84.2187V81.6903H96.1293C97.081 81.6903 97.6776 82.3295 97.6776 83.0682C97.6776 83.7074 97.2373 84.2187 96.0867 84.2187H94.3395ZM94.3395 80.9233V78.5085H96.0015C96.9674 78.5085 97.3935 79.0199 97.3935 79.6591C97.3935 80.4261 96.7685 80.9233 95.9731 80.9233H94.3395Z" fill="#718096"/>
<path d="M100.261 85L100.993 82.9403H103.933L104.664 85H105.588L102.917 77.7273H102.008L99.3378 85H100.261ZM101.27 82.1591L102.434 78.8778H102.491L103.656 82.1591H101.27Z" fill="#718096"/>
<path d="M112.9 84.1619H112.147V77.7273H111.309V84.1903H107.559V77.7273H106.721V85H111.891V86.7187H112.8L112.9 84.1619Z" fill="#718096"/>
<path d="M114.23 77.7273V85H115.083L119.046 79.2898H119.117V85H119.997V77.7273H119.145L115.168 83.4517H115.097V77.7273H114.23Z" fill="#718096"/>
<path d="M127.896 81.3636C127.896 79.0625 126.547 77.6278 124.686 77.6278C122.825 77.6278 121.476 79.0625 121.476 81.3636C121.476 83.6648 122.825 85.0994 124.686 85.0994C126.547 85.0994 127.896 83.6648 127.896 81.3636ZM127.044 81.3636C127.044 83.2528 126.007 84.2756 124.686 84.2756C123.365 84.2756 122.328 83.2528 122.328 81.3636C122.328 79.4744 123.365 78.4517 124.686 78.4517C126.007 78.4517 127.044 79.4744 127.044 81.3636Z" fill="#718096"/>
<path d="M129.377 85H130.258V81.7472H134.135V85H135.016V77.7273H134.135V80.9659H130.258V77.7273H129.377V85Z" fill="#718096"/>
<path d="M136.779 85H137.66V81.7472H141.538V85H142.418V77.7273H141.538V80.9659H137.66V77.7273H136.779V85Z" fill="#718096"/>
<path d="M150.318 81.3636C150.318 79.0625 148.968 77.6278 147.108 77.6278C145.247 77.6278 143.897 79.0625 143.897 81.3636C143.897 83.6648 145.247 85.0994 147.108 85.0994C148.968 85.0994 150.318 83.6648 150.318 81.3636ZM149.466 81.3636C149.466 83.2528 148.429 84.2756 147.108 84.2756C145.787 84.2756 144.75 83.2528 144.75 81.3636C144.75 79.4744 145.787 78.4517 147.108 78.4517C148.429 78.4517 149.466 79.4744 149.466 81.3636Z" fill="#718096"/>
<path d="M156.188 77.7273H151.799V85H152.679V78.5085H156.188V77.7273Z" fill="#718096"/>
<path d="M163.384 81.3636C163.384 79.0625 162.035 77.6278 160.174 77.6278C158.313 77.6278 156.964 79.0625 156.964 81.3636C156.964 83.6648 158.313 85.0994 160.174 85.0994C162.035 85.0994 163.384 83.6648 163.384 81.3636ZM162.532 81.3636C162.532 83.2528 161.495 84.2756 160.174 84.2756C158.853 84.2756 157.816 83.2528 157.816 81.3636C157.816 79.4744 158.853 78.4517 160.174 78.4517C161.495 78.4517 162.532 79.4744 162.532 81.3636Z" fill="#718096"/>
<path d="M167.678 85H168.558V82.3437H170.149C171.843 82.3437 172.607 81.3139 172.607 80.0284C172.607 78.7429 171.843 77.7273 170.135 77.7273H167.678V85ZM168.558 81.5625V78.5085H170.107C171.289 78.5085 171.74 79.1548 171.74 80.0284C171.74 80.902 171.289 81.5625 170.121 81.5625H168.558Z" fill="#718096"/>
<path d="M173.581 85L174.313 82.9403H177.253L177.985 85H178.908L176.238 77.7273H175.329L172.658 85H173.581ZM174.59 82.1591L175.755 78.8778H175.811L176.976 82.1591H174.59Z" fill="#718096"/>
<path d="M182.37 85.0994C183.78 85.0994 184.828 84.2152 184.828 83.0256C184.828 82.1023 184.281 81.4311 183.365 81.2784V81.2216C184.1 80.9979 184.558 80.3942 184.558 79.5739C184.558 78.544 183.745 77.6278 182.399 77.6278C181.142 77.6278 180.098 78.402 180.055 79.5455H180.907C180.939 78.821 181.628 78.3949 182.385 78.3949C183.187 78.3949 183.706 78.8814 183.706 79.6165C183.706 80.3835 183.106 80.8807 182.243 80.8807H181.66V81.6619H182.243C183.347 81.6619 183.961 82.223 183.961 83.0256C183.961 83.7962 183.29 84.3182 182.356 84.3182C181.515 84.3182 180.847 83.8849 180.794 83.1818H179.899C179.952 84.3253 180.961 85.0994 182.37 85.0994Z" fill="#718096"/>
<path d="M186.408 85H189.036C190.755 85 191.465 84.1619 191.465 83.0682C191.465 81.9176 190.669 81.2926 190.002 81.25V81.179C190.627 81.0085 191.181 80.5966 191.181 79.6591C191.181 78.5937 190.471 77.7273 188.951 77.7273H186.408V85ZM187.289 84.2187V81.6903H189.079C190.03 81.6903 190.627 82.3295 190.627 83.0682C190.627 83.7074 190.186 84.2187 189.036 84.2187H187.289ZM187.289 80.9233V78.5085H188.951C189.917 78.5085 190.343 79.0199 190.343 79.6591C190.343 80.4261 189.718 80.9233 188.922 80.9233H187.289Z" fill="#718096"/>
<path d="M192.912 77.7273V85H193.764L197.727 79.2898H197.798V85H198.679V77.7273H197.827L193.849 83.4517H193.778V77.7273H192.912Z" fill="#718096"/>
<path d="M200.044 78.5085H202.33V85H203.211V78.5085H205.498V77.7273H200.044V78.5085Z" fill="#718096"/>
<path d="M206.857 77.7273V85H207.71L211.673 79.2898H211.744V85H212.624V77.7273H211.772L207.795 83.4517H207.724V77.7273H206.857Z" fill="#718096"/>
<path d="M219.017 85V77.7273H216.56C214.855 77.7273 214.088 78.6719 214.088 79.9574C214.088 80.9233 214.522 81.6797 215.448 81.9957L213.804 85H214.827L216.361 82.1555C216.421 82.1591 216.482 82.1591 216.546 82.1591H218.137V85H219.017ZM218.137 81.3636H216.574C215.409 81.3636 214.955 80.831 214.955 79.9574C214.955 79.0838 215.409 78.5085 216.588 78.5085H218.137V81.3636Z" fill="#718096"/>
</svg>
