<svg width="42" height="42" viewBox="0 0 42 42" fill="none" xmlns="http://www.w3.org/2000/svg">
<circle cx="21" cy="21" r="21" fill="#014483"/>
<g clip-path="url(#clip0_147:4093)">
<path d="M14 14.4372C14.0182 14.3961 14.0353 14.3546 14.0545 14.3142C14.2021 14.0043 14.586 13.9039 14.8641 14.1056C14.9227 14.1481 14.9747 14.2005 15.0261 14.2519C16.9759 16.201 18.925 18.1505 20.8738 20.1006C20.9118 20.139 20.9395 20.1876 20.9721 20.2314C20.9937 20.2376 21.0152 20.2434 21.0368 20.2496C21.0646 20.2023 21.0834 20.1462 21.1211 20.1085C23.0784 18.1477 25.0378 16.189 26.9958 14.2289C27.164 14.0608 27.3475 13.955 27.5935 14.0221C27.9705 14.1245 28.1226 14.5598 27.8894 14.8728C27.849 14.9273 27.7996 14.9759 27.7513 15.0242C25.8053 16.9702 23.8593 18.9163 21.9122 20.8616C21.8704 20.9031 21.8211 20.937 21.7639 20.9832C21.8184 21.0404 21.854 21.0798 21.8913 21.1171C23.8535 23.0793 25.8156 25.0421 27.7791 27.0028C27.9657 27.1891 28.0565 27.3953 27.9599 27.6556C27.8907 27.8419 27.7376 27.9344 27.563 28.0008C27.49 28.0008 27.4171 28.0008 27.3441 28.0008C27.2088 27.905 27.0564 27.8262 26.9407 27.7108C24.9984 25.7753 23.0609 23.8358 21.1235 21.8959C21.0858 21.8579 21.0622 21.8059 21.032 21.7603C21.0108 21.7603 20.9892 21.7603 20.968 21.7607C20.9378 21.8062 20.9142 21.8583 20.8762 21.8959C18.9394 23.8362 17.0019 25.7757 15.0597 27.7111C14.9439 27.8265 14.7915 27.9053 14.6562 28.0008C14.5833 28.0008 14.5103 28.0008 14.4374 28.0008C14.2175 27.9293 14.0716 27.7834 14 27.5635C14 27.4905 14 27.4176 14 27.3446C14.0959 27.2094 14.1743 27.0569 14.2897 26.9412C16.2252 24.9989 18.1647 23.0614 20.1046 21.124C20.1426 21.0863 20.1946 21.0627 20.2402 21.0325C20.2402 21.0113 20.2402 20.9897 20.2402 20.9685C20.1946 20.9383 20.1426 20.9147 20.1049 20.877C18.1647 18.9392 16.2252 17.0018 14.2897 15.0595C14.1743 14.9437 14.0959 14.7913 14 14.656C14 14.5831 14 14.5101 14 14.4372Z" fill="white"/>
</g>
<defs>
<clipPath id="clip0_147:4093">
<rect width="14" height="14" fill="white" transform="translate(14 14)"/>
</clipPath>
</defs>
</svg>
