<svg width="100" height="100" viewBox="0 0 100 100" fill="none" xmlns="http://www.w3.org/2000/svg">
<circle cx="50" cy="50" r="50" fill="#014483"/>
<path d="M66.2941 51.766C66.1573 51.7658 66.0232 51.7272 65.9073 51.6545C65.7913 51.5817 65.6982 51.4779 65.6384 51.3548C65.5787 51.2316 65.5548 51.0942 65.5694 50.9581C65.5841 50.8221 65.6367 50.6929 65.7213 50.5853C66.1671 50.0168 66.597 49.4483 67.01 48.8792C67.1247 48.7259 67.295 48.6238 67.4842 48.5949C67.6734 48.566 67.8664 48.6127 68.0216 48.7248C68.1768 48.8369 68.2817 49.0054 68.3137 49.1942C68.3458 49.3829 68.3024 49.5766 68.1929 49.7337C67.7711 50.3175 67.3274 50.9012 66.8691 51.485C66.8009 51.5725 66.7137 51.6432 66.6141 51.6919C66.5144 51.7406 66.405 51.7659 66.2941 51.766Z" fill="#F7FAFC"/>
<path d="M47.03 66.543C46.8365 66.543 46.6509 66.466 46.5141 66.3292L33.6709 53.4859C33.5633 53.3784 33.492 53.2399 33.467 53.0898C33.442 52.9397 33.4646 52.7856 33.5315 52.6489C34.5389 50.5884 35.649 48.5796 36.8576 46.6301C38.4543 44.0189 40.2587 41.5406 42.2532 39.219C49.9716 30.2586 58.3773 26.7669 64.0699 25.4154C67.5588 24.5132 71.1816 24.2467 74.7649 24.6288C74.9171 24.6529 75.0578 24.7247 75.1667 24.8338C75.2757 24.9429 75.3473 25.0836 75.3713 25.2359C75.4311 25.6125 76.7672 34.5845 71.0308 45.2166C70.9351 45.3795 70.78 45.499 70.598 45.5498C70.416 45.6006 70.2215 45.5789 70.0552 45.4892C69.8889 45.3995 69.7639 45.2488 69.7065 45.0688C69.649 44.8888 69.6637 44.6936 69.7472 44.5241C72.8915 38.8816 74.3636 32.4603 73.9913 26.0116C70.9834 25.7511 56.1487 25.3242 43.3595 40.1727C41.4156 42.4358 39.6571 44.8517 38.101 47.3971C37.0269 49.1265 36.0104 50.9487 35.0749 52.8226L47.176 64.9274C49.0543 63.9897 50.8764 62.9732 52.5993 61.9026C55.1442 60.3456 57.5601 58.5869 59.8236 56.6435C60.6687 55.9196 61.5195 55.1344 62.3558 54.3083C62.494 54.1759 62.6787 54.103 62.87 54.1054C63.0614 54.1079 63.2442 54.1854 63.379 54.3213C63.5138 54.4572 63.5897 54.6407 63.5905 54.8321C63.5913 55.0235 63.5169 55.2075 63.3833 55.3446C62.5222 56.1983 61.645 57.0083 60.7759 57.7527C58.4536 59.7461 55.975 61.5499 53.3641 63.1468C51.4154 64.3549 49.4073 65.4645 47.3475 66.4715C47.2484 66.5191 47.1399 66.5436 47.03 66.543Z" fill="#F7FAFC"/>
<path d="M73.0018 39.5423C72.8083 39.5422 72.6227 39.4653 72.4859 39.3284L60.6708 27.5141C60.5339 27.3773 60.4569 27.1917 60.4568 26.9981C60.4568 26.8045 60.5336 26.6188 60.6704 26.4819C60.8073 26.345 60.9929 26.268 61.1865 26.268C61.38 26.2679 61.5657 26.3447 61.7026 26.4815L73.5184 38.2966C73.6205 38.3987 73.69 38.5288 73.7181 38.6704C73.7462 38.812 73.7317 38.9587 73.6764 39.0921C73.6211 39.2254 73.5275 39.3394 73.4074 39.4195C73.2873 39.4997 73.1461 39.5424 73.0018 39.5423Z" fill="#F7FAFC"/>
<path d="M57.63 48.5362C56.6158 48.5361 55.6172 48.2858 54.7227 47.8076C53.8283 47.3293 53.0656 46.6379 52.5022 45.7945C51.9388 44.9511 51.5921 43.9818 51.4928 42.9724C51.3935 41.963 51.5446 40.9447 51.9329 40.0077C52.3211 39.0706 52.9344 38.2438 53.7185 37.6005C54.5026 36.9571 55.4333 36.517 56.4281 36.3192C57.4229 36.1214 58.4511 36.1721 59.4217 36.4666C60.3923 36.7611 61.2752 37.2904 61.9924 38.0076C62.8552 38.8702 63.4429 39.9692 63.681 41.1658C63.9191 42.3624 63.7969 43.6027 63.3299 44.7298C62.8629 45.8569 62.072 46.8202 61.0574 47.4977C60.0428 48.1753 58.8501 48.5367 57.63 48.5362ZM57.63 37.6632C56.5419 37.6646 55.488 38.0431 54.6476 38.7343C53.8073 39.4256 53.2326 40.3867 53.0215 41.4542C52.8103 42.5216 52.9757 43.6292 53.4895 44.5883C54.0033 45.5474 54.8338 46.2988 55.8394 46.7143C56.845 47.1299 57.9636 47.184 59.0046 46.8673C60.0456 46.5507 60.9447 45.883 61.5486 44.9779C62.1526 44.0728 62.424 42.9863 62.3168 41.9035C62.2096 40.8207 61.7303 39.8085 60.9605 39.0395C60.5234 38.6021 60.0041 38.2553 59.4326 38.0191C58.861 37.783 58.2485 37.662 57.63 37.6632Z" fill="#F7FAFC"/>
<path d="M26.0466 48.0509C25.9408 48.0509 25.8363 48.0279 25.7403 47.9835C25.6443 47.9391 25.5591 47.8744 25.4906 47.7938C25.4221 47.7132 25.3719 47.6187 25.3436 47.5168C25.3152 47.4149 25.3093 47.308 25.3264 47.2037C25.5914 45.568 26.2043 44.0083 27.1237 42.6297C28.8036 40.0525 31.4269 38.2367 34.4306 37.5718C37.4342 36.907 40.5788 37.4462 43.1894 39.0737C43.3463 39.1789 43.4563 39.3408 43.4963 39.5254C43.5363 39.71 43.5032 39.903 43.4038 40.0636C43.3045 40.2243 43.1467 40.3402 42.9637 40.3869C42.7807 40.4337 42.5867 40.4076 42.4225 40.3143C40.134 38.8865 37.3767 38.4134 34.7432 38.9967C32.1097 39.5801 29.8101 41.1732 28.3387 43.4339C27.8312 44.1951 27.4286 45.0213 27.1419 45.8901C28.8354 45.1178 30.6884 44.7594 32.5477 44.8445C34.4071 44.9297 36.2195 45.4559 37.8354 46.3798C37.9187 46.4272 37.9918 46.4906 38.0506 46.5663C38.1093 46.642 38.1526 46.7285 38.178 46.8209C38.2033 46.9134 38.2102 47.0099 38.1983 47.105C38.1863 47.2001 38.1557 47.2919 38.1083 47.3751C38.0609 47.4584 37.9975 47.5315 37.9218 47.5903C37.8461 47.6491 37.7596 47.6924 37.6671 47.7177C37.5747 47.7431 37.4782 47.75 37.3831 47.738C37.288 47.7261 37.1962 47.6955 37.113 47.6481C35.4785 46.7131 33.6185 46.2451 31.7362 46.2953C29.8539 46.3455 28.0215 46.9119 26.4392 47.9327C26.3223 48.0088 26.1861 48.0498 26.0466 48.0509Z" fill="#F7FAFC"/>
<path d="M52.6788 74.6831C52.5479 74.683 52.4194 74.6477 52.3068 74.5808C52.1942 74.514 52.1016 74.4181 52.0389 74.3031C51.9761 74.1882 51.9454 74.0585 51.95 73.9276C51.9547 73.7967 51.9944 73.6695 52.0651 73.5593C53.0859 71.9769 53.6522 70.1444 53.7024 68.2619C53.7526 66.3795 53.2847 64.5194 52.3497 62.8848C52.2539 62.7166 52.2289 62.5173 52.28 62.3306C52.3312 62.144 52.4545 61.9853 52.6226 61.8895C52.7908 61.7937 52.9902 61.7686 53.1768 61.8198C53.3635 61.871 53.5222 61.9942 53.618 62.1624C54.5422 63.7781 55.0687 65.5906 55.1538 67.45C55.239 69.3094 54.8804 71.1624 54.1076 72.8559C54.9755 72.5696 55.8007 72.1676 56.561 71.6606C58.8215 70.189 60.4148 67.8898 60.9988 65.2565C61.5827 62.6232 61.1108 59.8659 59.6842 57.5768C59.6289 57.4953 59.5906 57.4035 59.5717 57.3068C59.5528 57.2101 59.5537 57.1107 59.5743 57.0143C59.5949 56.918 59.6347 56.8269 59.6915 56.7464C59.7482 56.6659 59.8206 56.5977 59.9044 56.5459C59.9882 56.4942 60.0816 56.4599 60.179 56.4452C60.2764 56.4305 60.3758 56.4357 60.4711 56.4604C60.5664 56.4851 60.6558 56.5289 60.7338 56.5891C60.8117 56.6493 60.8767 56.7246 60.9248 56.8106C62.5531 59.421 63.0929 62.5659 62.4283 65.5699C61.7637 68.574 59.9477 71.1977 57.3703 72.8777C55.9928 73.7963 54.4343 74.4087 52.8 74.6736C52.7599 74.6802 52.7194 74.6834 52.6788 74.6831Z" fill="#F7FAFC"/>
<path d="M35.1551 75.5406C35.0108 75.5405 34.8698 75.4977 34.7498 75.4175C34.6298 75.3373 34.5363 75.2234 34.4811 75.0901C34.4259 74.9568 34.4114 74.8101 34.4396 74.6685C34.4677 74.527 34.5372 74.397 34.6392 74.2949L41.0608 67.8733C41.1984 67.7404 41.3828 67.6668 41.5741 67.6685C41.7654 67.6701 41.9485 67.7469 42.0838 67.8822C42.2191 68.0175 42.2958 68.2005 42.2975 68.3918C42.2991 68.5832 42.2256 68.7675 42.0927 68.9051L35.671 75.3268C35.5342 75.4636 35.3486 75.5405 35.1551 75.5406Z" fill="#F7FAFC"/>
<path d="M26.159 74.5707C26.0147 74.5707 25.8737 74.5279 25.7537 74.4477C25.6337 74.3675 25.5402 74.2535 25.485 74.1202C25.4298 73.9869 25.4153 73.8402 25.4435 73.6987C25.4716 73.5571 25.5411 73.4271 25.6431 73.3251L32.0647 66.9034C32.132 66.8337 32.2126 66.7782 32.3016 66.7399C32.3906 66.7017 32.4864 66.6815 32.5833 66.6807C32.6802 66.6798 32.7762 66.6983 32.8659 66.735C32.9556 66.7717 33.0371 66.8259 33.1056 66.8944C33.1741 66.9629 33.2283 67.0444 33.265 67.1341C33.3017 67.2238 33.3202 67.3198 33.3193 67.4167C33.3185 67.5136 33.2983 67.6094 33.2601 67.6984C33.2218 67.7874 33.1663 67.868 33.0966 67.9353L26.6749 74.3569C26.5381 74.4938 26.3525 74.5707 26.159 74.5707Z" fill="#F7FAFC"/>
<path d="M25.1892 65.5739C25.0449 65.5739 24.9038 65.5311 24.7838 65.4509C24.6639 65.3707 24.5704 65.2567 24.5151 65.1234C24.4599 64.9901 24.4455 64.8434 24.4736 64.7019C24.5018 64.5603 24.5712 64.4303 24.6733 64.3283L31.0949 57.9066C31.1622 57.8369 31.2427 57.7813 31.3317 57.7431C31.4208 57.7049 31.5165 57.6847 31.6134 57.6839C31.7103 57.683 31.8064 57.7015 31.8961 57.7382C31.9858 57.7749 32.0672 57.8291 32.1358 57.8976C32.2043 57.9661 32.2585 58.0476 32.2951 58.1373C32.3318 58.2269 32.3503 58.323 32.3495 58.4199C32.3486 58.5168 32.3285 58.6126 32.2902 58.7016C32.252 58.7906 32.1964 58.8712 32.1267 58.9385L25.7051 65.3601C25.6375 65.4281 25.5571 65.482 25.4686 65.5187C25.38 65.5554 25.285 65.5742 25.1892 65.5739Z" fill="#F7FAFC"/>
</svg>
