<svg width="126" height="48" viewBox="0 0 126 48" fill="none" xmlns="http://www.w3.org/2000/svg">
<g clip-path="url(#clip0_98:1772)">
<path d="M0 0V47.9621H46.7327V0H0ZM9.53131 34.0174L23.3616 9.30593L37.1919 34.0174H9.53131Z" fill="#28BAB5"/>
<path d="M23.3624 20.5281L19.2236 27.4245H27.5105L23.3624 20.5281Z" fill="#5B9B99"/>
<path d="M49.58 42.3368H53.8695C53.8695 42.8965 54.1429 43.3233 54.6803 43.6364C55.2177 43.9494 55.8587 44.1012 56.6035 44.1012C57.2917 44.1012 57.9045 43.9589 58.4419 43.6648C58.9793 43.3708 59.2433 42.9818 59.2433 42.4885C59.2433 42.2229 59.1961 41.9953 59.1113 41.7866C59.017 41.5874 58.8756 41.4166 58.6776 41.2933C58.4796 41.17 58.3005 41.0751 58.1497 40.9992C57.9894 40.9233 57.7537 40.8664 57.4332 40.8285C57.1126 40.7905 56.8864 40.7621 56.7544 40.7431C56.6224 40.7241 56.3961 40.7146 56.0662 40.6957C55.2271 40.6482 54.454 40.5249 53.7375 40.3257C53.021 40.1265 52.3611 39.8419 51.7389 39.4719C51.1261 39.0925 50.6359 38.5897 50.287 37.9447C49.9382 37.2996 49.7591 36.5407 49.7591 35.6775C49.7591 33.8941 50.4096 32.5186 51.7012 31.5415C53.0022 30.5644 54.586 30.0712 56.4527 30.0712C57.6029 30.0712 58.6776 30.2704 59.6675 30.6688C60.6574 31.0672 61.4776 31.7028 62.1281 32.5755C62.7786 33.4482 63.0897 34.4822 63.0803 35.6775H58.8662C58.8473 35.1273 58.621 34.7099 58.1779 34.4253C57.7348 34.1502 57.188 34.0079 56.5281 34.0079C54.9631 34.0079 54.1901 34.5297 54.1901 35.5731C54.1901 36.1138 54.3975 36.4838 54.8217 36.702C55.2365 36.9107 55.9059 37.0719 56.8298 37.1668C57.65 37.2332 58.3665 37.3186 58.9699 37.4324C59.5732 37.5463 60.1955 37.7265 60.8177 37.9826C61.4399 38.2387 61.949 38.5423 62.3449 38.9123C62.7409 39.2822 63.0614 39.766 63.316 40.3826C63.5705 40.9992 63.7025 41.7012 63.7025 42.498C63.7025 44.1961 63.0049 45.5336 61.6096 46.5107C60.2143 47.4878 58.5645 47.981 56.6601 47.981C54.6897 47.981 53.0116 47.4878 51.6258 46.5107C50.221 45.5526 49.5517 44.1486 49.58 42.3368Z" fill="#DD3436"/>
<path d="M69.2922 34.3779H65.0498V30.4601H77.8619V34.3779H73.6478V47.6016H69.2922V34.3779Z" fill="#DD3436"/>
<path d="M90.1844 45.4767H83.7265L82.7366 47.6111H78.0322V46.9945L85.942 30.2893H88.0161L95.8504 46.9945V47.6111H91.1932L90.1844 45.4767ZM86.9507 37.5937L85.1784 41.7297H88.7514L86.9507 37.5937Z" fill="#DD3436"/>
<path d="M108.682 41.5115L112.057 46.947V47.5826H107.277L104.317 42.2229H101.951V47.5826H97.4443V30.4411C97.4632 30.4411 98.7265 30.4411 101.253 30.4316C103.77 30.4221 105.034 30.4316 105.034 30.4411C106.985 30.4411 108.512 31.0482 109.606 32.253C110.7 33.4577 111.246 34.8806 111.246 36.5123C111.209 38.7036 110.36 40.3636 108.682 41.5115ZM101.885 38.5708H105.015C105.609 38.5708 106.061 38.3621 106.391 37.9352C106.721 37.5083 106.881 37.0055 106.881 36.4174C106.881 35.8293 106.721 35.336 106.401 34.9376C106.08 34.5391 105.618 34.3399 105.005 34.3399H101.875V38.5708H101.885Z" fill="#DD3436"/>
<path d="M117.43 34.3779H113.197V30.4601H126.009V34.3779H121.795V47.6016H117.43V34.3779Z" fill="#DD3436"/>
<path d="M61.5905 21.1636H65.2861V26.7889H50.3057V21.1636H54.0013V5.82451H50.6451V0.199211H64.9562V5.82451H61.5999V21.1636H61.5905Z" fill="#DD3436"/>
<path d="M75.1947 6.27984H68.0674V0.199211H89.6378V6.27984H82.5482V26.7889H75.2041V6.27984H75.1947Z" fill="#DD3436"/>
</g>
<defs>
<clipPath id="clip0_98:1772">
<rect width="126" height="48" fill="white"/>
</clipPath>
</defs>
</svg>
